# xmcd CD database file
#
# Track frame offsets:
#	150
#	16775
#	37568
#	56663
#	75524
#	93705
#	111481
#	134587
#	153029
#	174855
#	193310
#	210120
#	219446
#	236321
#	256709
#	269392
#	285222
#	301679
#	326966
#
# Disc length: 4606 seconds
#
# Revision: 0
# Processed by: cddbd v1.5.1PL0 Copyright (c) Steve Scherf et al.
# Submitted via: CDex 1.51
#
DISCID=ef11fc13
DTITLE=Various Artist - The Best Smooth Jazz ...Ever!
DYEAR=2004
DGENRE=Jazz
TTITLE0=US3 - Cantaloop
TTITLE1=Paul Jackson Jr - Inner City Blues
TTITLE2=Bonny Jordan with Roy Ayers - Mystic Voyage
TTITLE3=Charlie Hunter with Norah Jones - More Than this
TTITLE4=D'Angelo - Brown Sugar
TTITLE5=Mica Paris - Stay
TTITLE6=Minnie Riperton and Jose Feliciano - Light My Fire
TTITLE7=Arrested Development - Everyday People
TTITLE8=Ronnie Laws - Always There
TTITLE9=The Brand New Heavies - Midnight At The Oasis
TTITLE10=Shara Nelson - Down That Road
TTITLE11=Bill Withers - Ain't No Sunshine
TTITLE12=St. Germain - Sure Thing
TTITLE13=Maze - Joy And Pain
TTITLE14=Natalie Cole - This Will Be
TTITLE15=Guru feat. DC Lee - Ain't No Time To Play
TTITLE16=Luther Vandross - So Amazing
TTITLE17=Earl Klugh - Living Inside Your Love
TTITLE18=Cassandra Wilson - Time After Time
EXTD=YEAR: 2004
EXTT0=
EXTT1=
EXTT2=
EXTT3=
EXTT4=
EXTT5=
EXTT6=
EXTT7=
EXTT8=
EXTT9=
EXTT10=
EXTT11=
EXTT12=
EXTT13=
EXTT14=
EXTT15=
EXTT16=
EXTT17=
EXTT18=
PLAYORDER=
